<?xml version="1.0" standalone="no"?>
<!DOCTYPE svg PUBLIC "-//W3C//DTD SVG 20010904//EN"
 "http://www.w3.org/TR/2001/REC-SVG-20010904/DTD/svg10.dtd">
<svg version="1.0" xmlns="http://www.w3.org/2000/svg"
 width="1024.000000pt" height="1024.000000pt" viewBox="0 0 1024.000000 1024.000000"
 preserveAspectRatio="xMidYMid meet">
<metadata>
Created by potrace 1.11, written by Peter Selinger 2001-2013
</metadata>
<g transform="translate(0.000000,1024.000000) scale(0.100000,-0.100000)"
fill="#000000" stroke="none">
<path d="M7515 7248 c-31 -18 -44 -40 -45 -76 -1 -87 93 -126 154 -65 71 71
-22 191 -109 141z"/>
<path d="M9373 6920 c-36 -21 -60 -82 -50 -122 10 -40 45 -77 82 -87 101 -28
184 70 140 163 -31 64 -109 85 -172 46z"/>
<path d="M8670 6775 c-63 -7 -133 -16 -155 -19 -241 -39 -474 -78 -510 -86
-25 -6 -61 -13 -81 -16 -20 -3 -111 -21 -202 -40 -91 -19 -176 -34 -188 -34
-27 0 -37 -22 -20 -45 10 -14 17 -15 33 -7 29 16 453 87 728 122 213 27 222
28 280 34 28 3 78 8 113 12 35 3 120 6 190 6 197 0 326 -39 342 -102 24 -92
-176 -281 -545 -514 l-119 -75 -35 63 c-53 92 -86 134 -162 201 -128 113 -279
173 -500 199 -161 19 -980 20 -1064 2 -154 -34 -233 -101 -277 -238 -20 -61
-21 -85 -23 -635 -1 -315 -4 -575 -6 -577 -15 -15 -944 -375 -1234 -478 -77
-27 -198 -71 -270 -98 l-130 -48 -3 165 c-1 91 -1 167 1 169 2 2 115 4 253 5
305 2 414 12 561 55 279 80 475 260 553 503 39 123 45 165 44 331 -1 136 -5
179 -23 245 -24 89 -75 203 -119 267 -122 176 -326 295 -557 324 -22 3 -51 8
-65 11 -14 3 -245 7 -515 9 -523 4 -563 1 -659 -45 -88 -43 -151 -128 -177
-238 -8 -34 -12 -338 -13 -1040 -1 -647 -4 -995 -11 -1001 -15 -14 -154 -54
-165 -47 -6 3 -10 15 -10 25 0 29 -50 162 -181 486 -225 558 -327 808 -413
1024 -48 118 -91 224 -96 235 -5 11 -37 90 -71 175 -33 85 -75 182 -92 214
-63 118 -175 211 -288 241 -75 20 -240 14 -299 -10 -104 -43 -189 -123 -249
-235 -28 -53 -718 -1791 -803 -2025 -65 -177 -57 -292 29 -400 127 -160 384
-178 510 -35 42 48 134 254 214 483 l24 67 443 0 442 0 10 -22 c5 -13 39 -97
74 -188 36 -91 74 -183 85 -205 l19 -39 -237 -68 c-556 -159 -1088 -279 -1475
-333 -141 -19 -132 -21 -152 20 -38 80 -143 134 -224 116 -76 -17 -150 -80
-165 -140 -11 -45 -19 -48 -92 -39 -104 13 -153 30 -191 66 -33 30 -35 35 -29
85 3 28 16 72 28 95 48 89 282 273 556 437 79 47 104 75 66 75 -10 0 -74 -32
-143 -71 -307 -175 -496 -324 -550 -432 -50 -102 -39 -202 29 -260 43 -36 132
-67 233 -80 l87 -12 30 -46 c40 -64 119 -104 191 -96 74 8 134 47 170 111 l30
53 118 12 c464 49 948 146 1573 317 l236 64 63 -33 c57 -29 72 -32 149 -32 71
0 96 5 142 27 70 32 132 87 166 147 15 25 28 48 29 49 2 3 184 59 200 62 0 0
6 -19 13 -42 65 -221 336 -317 529 -187 108 72 152 167 159 341 5 96 8 118 22
123 21 8 242 88 441 158 272 97 738 276 1040 401 74 30 136 53 139 51 2 -3 5
-184 6 -402 1 -219 5 -416 10 -438 23 -116 99 -216 195 -259 191 -86 403 -1
478 190 30 78 31 87 31 472 l1 332 238 0 c434 0 624 39 827 168 267 170 395
498 340 872 -12 82 -13 116 -5 118 20 7 262 173 365 250 221 167 343 317 350
432 2 32 -21 89 -48 118 -75 81 -293 109 -587 77z m-5898 -469 c80 -38 126
-110 211 -326 24 -63 189 -470 364 -905 332 -818 377 -936 388 -995 l6 -36
-115 -37 c-63 -20 -122 -37 -129 -37 -18 0 -69 112 -163 355 -51 132 -81 197
-99 213 l-26 22 -549 0 -550 0 -29 -27 c-22 -21 -47 -76 -101 -223 -40 -107
-92 -237 -116 -287 -39 -81 -48 -93 -77 -101 -93 -25 -187 38 -187 125 0 64
-8 42 385 1038 170 429 327 830 350 890 89 233 144 312 234 339 57 18 157 13
203 -8z m2688 -35 c196 -24 312 -74 415 -176 163 -163 217 -470 129 -735 -73
-217 -248 -346 -541 -397 -63 -11 -182 -16 -425 -18 -218 -3 -344 -8 -357 -15
-47 -25 -51 -52 -51 -334 l0 -264 -142 -48 c-79 -26 -149 -49 -155 -52 -10 -3
-13 191 -13 949 1 873 2 958 18 1004 21 60 54 82 138 93 94 12 877 6 984 -7z
m2362 0 c189 -23 304 -72 405 -170 50 -50 123 -160 123 -188 0 -9 -269 -158
-274 -152 -1 2 -18 38 -38 79 -61 130 -158 202 -318 236 -100 21 -173 25 -405
26 -279 0 -262 2 -296 -31 l-29 -29 0 -400 0 -399 -72 -31 c-40 -17 -110 -46
-156 -66 l-83 -36 3 533 c3 486 5 535 21 564 22 42 64 63 140 71 102 12 872 6
979 -7z m-227 -382 c114 -13 181 -36 221 -77 30 -31 64 -105 64 -141 0 -17
-84 -60 -467 -237 l-223 -103 0 285 0 285 163 -2 c89 -1 198 -5 242 -10z m803
-136 c7 -93 0 -252 -12 -314 -48 -232 -209 -388 -467 -453 -139 -35 -163 -37
-527 -41 -354 -4 -365 -5 -391 -54 -6 -11 -11 -172 -12 -412 -1 -279 -5 -408
-14 -442 -18 -71 -78 -124 -135 -122 -81 4 -130 42 -150 114 -6 25 -9 197 -8
476 l3 437 205 90 205 91 205 3 c261 2 344 10 448 40 97 28 156 60 209 112 75
75 115 162 128 277 3 27 8 52 13 56 13 14 277 158 288 159 6 0 11 -8 12 -17z
m-553 -297 c-28 -42 -102 -84 -181 -101 -40 -9 -79 -15 -86 -13 -6 2 26 22 72
44 46 21 111 53 145 71 33 17 61 30 63 28 2 -2 -4 -15 -13 -29z m-3218 -1361
c-11 -116 -61 -175 -150 -177 -77 -1 -147 57 -147 122 0 24 9 29 138 72 75 25
143 47 151 47 11 1 13 -12 8 -64z"/>
<path d="M2591 5963 c-25 -24 -61 -114 -220 -561 -105 -292 -191 -546 -191
-562 0 -19 11 -42 29 -62 l29 -33 405 -2 c461 -2 461 -2 485 72 14 40 13 43
-152 495 -92 250 -170 464 -175 475 -5 11 -21 53 -36 92 -16 43 -37 81 -52 93
-37 29 -86 26 -122 -7z m155 -623 c42 -113 90 -247 109 -297 l33 -93 -46 0
c-190 -2 -405 0 -409 4 -3 2 46 146 108 320 90 250 116 310 122 293 5 -12 42
-114 83 -227z"/>
<path d="M4709 6099 c-17 -4 -41 -17 -53 -28 -21 -21 -21 -28 -24 -450 l-3
-428 30 -32 c33 -36 13 -34 309 -33 308 2 395 14 520 75 145 70 225 194 239
368 11 140 -25 265 -105 366 -71 89 -212 144 -407 159 -110 9 -467 10 -506 3z
m567 -216 c112 -17 167 -43 199 -91 64 -97 67 -255 5 -340 -62 -86 -203 -122
-482 -122 l-168 0 0 286 0 285 183 -2 c100 -1 219 -8 263 -16z"/>
<path d="M3614 6626 c-17 -8 -44 -31 -60 -52 -25 -32 -29 -46 -29 -100 0 -99
53 -155 152 -162 50 -3 64 0 100 24 108 71 97 229 -19 290 -34 18 -103 17
-144 0z"/>
<path d="M6330 6254 c-47 -13 -100 -27 -117 -30 -39 -8 -56 -25 -47 -48 7 -18
23 -20 56 -7 13 5 64 21 113 36 103 31 121 41 104 61 -14 17 -6 18 -109 -12z"/>
<path d="M3875 5381 c-93 -38 -196 -81 -228 -95 -32 -14 -63 -26 -70 -26 -25
0 -39 -17 -32 -39 7 -22 34 -28 51 -12 5 6 61 30 124 55 153 59 322 134 339
151 13 12 8 35 -7 35 -4 0 -83 -31 -177 -69z"/>
<path d="M8905 5040 c-68 -35 -105 -90 -112 -166 -19 -211 235 -316 374 -155
29 33 55 120 48 159 -15 88 -72 155 -150 178 -66 19 -99 15 -160 -16z"/>
<path d="M975 4522 c-162 -77 -131 -297 46 -330 148 -28 265 119 199 248 -43
84 -159 123 -245 82z"/>
<path d="M5502 4235 c-46 -20 -68 -72 -48 -118 36 -88 159 -86 196 3 18 44 -6
95 -55 116 -42 17 -51 17 -93 -1z"/>
<path d="M2957 3434 c-137 -43 -199 -215 -121 -341 124 -201 429 -114 428 122
-1 93 -61 185 -143 217 -44 17 -114 18 -164 2z"/>
</g>
</svg>
