<?xml version="1.0" standalone="no"?>
<!DOCTYPE svg PUBLIC "-//W3C//DTD SVG 20010904//EN"
 "http://www.w3.org/TR/2001/REC-SVG-20010904/DTD/svg10.dtd">
<svg version="1.0" xmlns="http://www.w3.org/2000/svg"
 width="700.000000pt" height="700.000000pt" viewBox="0 0 700.000000 700.000000"
 preserveAspectRatio="xMidYMid meet">
<metadata>
Created by potrace 1.11, written by Peter Selinger 2001-2013
</metadata>
<g transform="translate(0.000000,700.000000) scale(0.100000,-0.100000)"
fill="#000000" stroke="none">
<path d="M239 6756 c-4 -73 -4 -6506 0 -6507 11 -3 268 -8 709 -13 l442 -5 0
47 c1 26 3 1143 5 2482 1 1339 4 2439 4 2444 1 6 568 -558 1262 -1252 693
-694 1264 -1262 1268 -1262 4 0 58 53 121 117 62 65 237 246 389 402 152 156
303 312 336 346 33 34 179 185 325 335 291 299 329 338 410 426 l56 59 -2 698
c-1 384 -4 700 -7 703 -2 3 -32 5 -64 5 l-60 1 -59 -63 c-32 -34 -75 -79 -94
-99 -262 -275 -521 -547 -570 -600 -23 -25 -104 -110 -180 -190 -76 -80 -157
-165 -180 -190 -23 -25 -104 -110 -180 -190 -76 -80 -160 -169 -186 -197 l-49
-53 -1282 1282 -1282 1282 -565 2 c-418 1 -566 -1 -567 -10z"/>
<path d="M2970 6746 c-7 -9 -16 -13 -21 -10 -5 3 -6 -2 -3 -10 3 -9 11 -16 18
-16 6 0 4 -5 -4 -10 -10 -6 -11 -10 -2 -10 6 0 12 -5 12 -11 0 -5 -6 -7 -12
-3 -8 5 -7 0 2 -11 14 -17 13 -18 -2 -12 -12 4 -15 2 -11 -8 3 -8 9 -13 13
-10 5 3 7 -2 6 -11 -1 -8 -9 -20 -17 -25 -11 -7 -11 -9 4 -9 9 0 17 -4 17 -10
0 -5 -5 -10 -11 -10 -8 0 -7 -6 2 -17 8 -9 9 -14 3 -10 -6 3 -11 0 -11 -8 0
-8 4 -12 9 -9 4 3 8 0 8 -5 0 -6 -5 -11 -11 -11 -8 0 -7 -6 2 -17 8 -9 9 -14
3 -10 -6 3 -11 0 -11 -8 0 -8 5 -11 10 -8 5 3 7 0 5 -8 -3 -8 -12 -13 -19 -11
-8 1 -5 -4 5 -13 14 -11 16 -15 5 -15 -12 0 -12 -2 0 -9 11 -7 11 -9 0 -14
-10 -4 -10 -6 -1 -6 6 -1 12 -6 12 -12 0 -5 -5 -7 -10 -4 -13 8 -8 -17 5 -27
6 -5 5 -11 -4 -17 -16 -10 -5 -35 11 -25 7 4 8 2 4 -5 -4 -6 -11 -9 -16 -6
-10 6 -8 -15 3 -32 5 -8 4 -13 -2 -13 -6 0 -11 -5 -11 -11 0 -5 6 -7 13 -3 8
5 8 2 -2 -9 -12 -15 -11 -17 5 -18 11 0 14 -3 7 -5 -7 -3 -9 -12 -6 -20 3 -8
0 -14 -7 -14 -7 0 -6 -6 4 -16 19 -19 20 -25 3 -18 -9 3 -13 -4 -13 -20 0 -14
4 -22 8 -20 13 8 9 -11 -4 -25 -10 -11 -10 -13 0 -7 15 9 15 1 1 -26 -8 -15
-8 -19 0 -14 6 4 11 2 11 -3 0 -6 -6 -11 -12 -11 -9 0 -8 -4 2 -10 13 -9 13
-11 0 -20 -10 -6 -11 -10 -2 -10 17 0 15 -20 -5 -44 -17 -20 -17 -20 1 -6 17
13 19 13 14 0 -3 -8 -1 -25 3 -38 6 -14 5 -21 0 -17 -5 3 -12 1 -16 -5 -3 -5
-2 -10 3 -10 6 0 13 -7 16 -16 6 -15 4 -15 -10 -3 -16 13 -16 12 -6 -8 15 -28
15 -36 0 -27 -7 4 -5 -2 5 -13 16 -19 16 -22 3 -36 -12 -12 -13 -17 -3 -20 9
-3 9 -9 -1 -27 -8 -12 -9 -19 -3 -16 5 4 12 2 16 -4 3 -5 2 -10 -3 -10 -5 0
-7 -14 -4 -30 2 -17 -2 -38 -9 -47 -10 -12 -10 -14 -1 -9 8 5 12 -1 12 -23 0
-16 -5 -33 -10 -36 -8 -5 -8 -11 0 -19 5 -7 10 -24 9 -37 0 -13 1 -32 3 -41 5
-24 44 -59 54 -50 5 4 2 -2 -6 -12 -14 -18 -13 -19 8 -13 13 3 22 3 19 0 -3
-3 5 -15 18 -28 14 -12 22 -25 18 -28 -3 -4 1 -7 10 -7 9 0 17 -8 17 -17 0
-15 2 -16 10 -3 6 10 10 11 10 3 0 -7 -1 -16 -2 -19 -2 -3 5 -10 15 -15 10 -6
14 -15 10 -22 -4 -7 0 -6 10 2 11 9 17 10 17 2 0 -23 2 -26 21 -33 10 -4 19
-14 19 -23 0 -8 7 -15 15 -15 8 0 15 -5 15 -11 0 -5 5 -7 12 -3 8 5 9 2 5 -9
-4 -11 -1 -17 8 -17 8 0 15 -5 15 -11 0 -5 5 -7 10 -4 6 4 10 3 9 -2 -1 -4 1
-16 6 -26 6 -14 10 -15 22 -6 8 7 13 8 12 3 -1 -5 -1 -17 0 -28 1 -15 4 -16
16 -6 13 11 14 10 9 -4 -3 -9 -1 -16 6 -16 6 0 8 -4 5 -10 -3 -5 0 -10 8 -10
7 0 20 -11 27 -25 10 -18 16 -22 22 -13 6 10 8 10 8 0 0 -8 5 -10 13 -6 8 6 8
3 -1 -9 -12 -14 -10 -17 12 -23 14 -3 23 -10 20 -15 -3 -5 0 -9 5 -9 6 0 11
-7 11 -15 0 -9 6 -12 17 -8 10 4 14 2 10 -4 -4 -6 0 -14 9 -17 9 -4 14 -13 10
-21 -6 -18 5 -20 22 -3 9 9 10 6 7 -12 -2 -12 -2 -20 1 -18 3 3 29 -18 58 -48
30 -29 56 -50 60 -47 3 4 6 -4 6 -16 0 -12 4 -19 10 -16 6 3 10 1 10 -5 0 -6
5 -8 10 -5 6 3 10 -1 10 -9 0 -9 5 -16 11 -16 5 0 7 -5 3 -12 -5 -7 -2 -9 8
-5 11 4 18 -2 22 -19 4 -14 10 -23 15 -20 11 7 51 -23 51 -38 0 -14 39 -47 55
-47 12 1 15 51 2 51 -6 0 -5 5 1 13 15 18 15 29 1 38 -10 6 -10 11 0 22 8 11
9 17 1 22 -8 5 -8 11 1 21 9 11 8 14 -7 14 -18 1 -18 2 -2 13 15 12 15 14 0
25 -16 11 -16 11 0 6 16 -5 20 17 5 32 -5 6 -2 17 15 45 1 3 -3 13 -11 22 -11
14 -11 17 0 17 9 1 8 5 -5 15 -18 14 -18 15 -2 15 9 0 14 5 11 10 -4 6 -12 8
-18 4 -7 -3 -3 2 7 10 11 9 14 16 7 16 -7 0 -9 4 -6 10 3 5 0 20 -6 32 -11 21
-11 22 5 9 14 -12 17 -12 14 0 -2 7 -9 20 -15 27 -16 16 -17 32 -2 32 5 0 7
-4 4 -10 -3 -5 -2 -10 4 -10 5 0 9 9 8 19 0 11 -5 17 -9 15 -13 -8 -9 11 5 25
10 11 10 13 0 7 -7 -4 -13 -3 -13 1 0 5 6 15 13 22 10 12 9 13 -7 7 -20 -7
-20 -7 0 15 17 20 17 22 2 16 -10 -4 -18 -4 -18 0 0 3 8 12 18 20 15 13 15 14
0 9 -13 -4 -15 -1 -11 12 4 9 11 20 17 24 7 5 3 8 -8 8 -20 0 -20 0 0 16 10 8
13 13 7 9 -7 -3 -13 0 -13 7 0 8 6 20 13 27 10 11 10 13 0 7 -7 -4 -13 -4 -14
1 0 4 -2 18 -3 31 -2 17 1 21 13 17 11 -3 10 0 -3 10 -20 15 -20 15 0 15 11 0
15 3 8 8 -6 4 -12 36 -13 71 -1 36 -4 68 -7 72 -2 4 4 10 13 12 16 4 16 5 -1
6 -20 1 -20 1 0 17 10 8 13 13 7 9 -14 -7 -15 -4 -17 93 -1 51 2 61 14 57 13
-4 13 -4 0 7 -21 18 -21 80 0 73 13 -4 13 -4 0 7 -22 18 -19 74 4 88 14 9 16
9 10 -1 -5 -9 -2 -10 9 -6 10 4 17 1 17 -6 0 -8 3 -9 8 -1 9 13 92 13 92 0 0
-5 6 -2 13 8 13 17 14 17 30 1 9 -9 17 -13 17 -8 0 5 11 10 26 11 17 1 23 -2
18 -10 -5 -7 -3 -8 7 -2 23 14 81 15 98 1 8 -7 12 -7 8 -1 -4 7 7 11 36 10 23
-1 48 3 56 9 11 7 13 7 8 -1 -5 -9 14 -11 71 -9 48 2 82 -1 91 -8 10 -8 13 -8
8 -1 -4 8 42 11 161 10 92 -1 179 2 194 5 14 4 29 4 32 1 8 -8 213 -5 226 3 5
3 10 3 10 -2 0 -7 76 -9 105 -3 6 1 15 1 20 0 30 -7 51 -3 63 10 8 8 11 9 7 3
-3 -7 -3 -13 2 -14 45 -4 63 -3 63 4 0 4 9 3 20 -3 15 -8 20 -8 20 2 0 8 3 9
8 3 4 -5 30 -10 57 -10 28 0 53 5 57 10 5 7 8 6 8 -1 0 -6 19 -8 55 -4 45 5
57 3 70 -12 16 -19 20 -32 7 -24 -4 2 -7 -11 -7 -29 0 -18 3 -31 8 -28 4 2 7
0 7 -6 0 -5 -8 -12 -17 -14 -17 -4 -17 -5 0 -6 19 -1 24 -31 5 -31 -6 0 -3 -7
8 -16 10 -8 13 -13 7 -9 -16 8 -17 -9 -2 -38 9 -20 9 -20 -4 -5 -13 16 -14 15
-13 -11 1 -16 4 -27 9 -24 4 2 7 0 7 -5 0 -6 -7 -12 -15 -16 -8 -3 -15 -11
-14 -18 0 -10 2 -10 6 0 2 6 9 12 14 12 4 0 6 -6 3 -13 -8 -23 -10 -86 -2 -81
4 3 8 0 8 -5 0 -6 -5 -11 -12 -11 -6 0 -3 -7 8 -16 10 -8 13 -13 7 -9 -16 8
-17 -9 -2 -38 9 -20 9 -20 -4 -5 -13 16 -14 15 -13 -11 1 -16 4 -27 9 -24 4 2
7 0 7 -5 0 -6 -7 -12 -15 -16 -8 -3 -15 -11 -14 -18 0 -10 2 -10 6 0 2 6 9 12
14 12 4 0 6 -6 3 -13 -8 -23 -10 -86 -2 -81 4 3 8 0 8 -5 0 -6 -5 -11 -12 -11
-6 0 -3 -7 8 -16 10 -8 13 -13 7 -9 -16 8 -17 -9 -2 -38 9 -20 9 -20 -4 -5
-13 16 -14 15 -13 -11 1 -16 4 -27 9 -24 4 2 7 0 7 -6 0 -5 -8 -12 -17 -14
-17 -4 -17 -5 0 -6 19 -1 24 -31 5 -31 -6 0 -3 -7 8 -16 10 -8 14 -13 8 -10
-7 3 -14 -3 -17 -14 -3 -11 -2 -18 3 -15 4 3 10 -2 13 -10 4 -8 1 -12 -6 -9
-8 3 -13 -4 -13 -15 0 -11 3 -18 6 -16 3 2 6 -5 7 -15 1 -11 -3 -23 -9 -26 -8
-5 -9 -1 -4 12 6 15 5 16 -5 7 -9 -9 -9 -16 -1 -25 6 -7 9 -27 8 -45 -1 -17 2
-30 6 -27 4 3 8 0 8 -5 0 -6 -5 -11 -12 -11 -6 0 -3 -7 8 -16 10 -8 13 -13 6
-9 -9 5 -12 0 -10 -19 2 -14 7 -28 11 -32 4 -4 2 -13 -4 -20 -12 -15 -19 -135
-7 -128 4 3 8 1 8 -5 0 -5 -6 -12 -12 -14 -10 -4 -10 -6 0 -6 7 -1 10 -6 7
-12 -10 -16 -13 -89 -3 -83 15 10 8 -9 -9 -21 -13 -9 -13 -14 -3 -20 9 -5 11
-4 6 3 -4 7 -2 12 3 12 6 0 11 -7 11 -15 0 -8 -6 -15 -12 -15 -8 0 -9 -3 -3
-8 12 -8 15 -53 4 -46 -4 2 -11 -1 -15 -7 -4 -7 -3 -9 3 -6 6 4 17 -1 24 -10
12 -14 12 -16 -1 -11 -11 4 -15 -2 -15 -28 0 -19 3 -34 8 -34 4 0 7 -5 7 -11
0 -5 -6 -7 -12 -3 -7 4 -4 -3 6 -15 14 -15 15 -20 5 -16 -10 4 -15 -1 -15 -14
0 -11 4 -17 8 -15 4 3 8 1 8 -5 0 -5 -6 -12 -12 -14 -10 -4 -10 -6 -1 -6 9 -1
10 -8 3 -27 -6 -14 -6 -23 -1 -20 5 3 11 -1 14 -9 4 -8 1 -12 -6 -9 -8 3 -13
-4 -13 -15 0 -11 4 -17 8 -15 4 3 8 0 8 -5 0 -6 -5 -11 -12 -11 -6 0 -3 -7 8
-16 10 -8 13 -12 5 -8 -11 5 -13 2 -9 -14 5 -16 2 -19 -11 -15 -9 4 -5 -3 9
-16 18 -17 20 -21 7 -17 -11 4 -16 2 -11 -5 3 -6 6 -29 6 -52 -1 -22 4 -50 10
-61 10 -18 9 -19 -3 -9 -12 10 -13 3 -11 -44 3 -41 1 -53 -8 -48 -8 5 -8 1 1
-13 7 -12 16 -19 19 -17 4 2 7 -2 7 -9 0 -8 -5 -12 -12 -10 -6 3 -11 -6 -12
-18 -2 -18 0 -20 7 -8 8 13 10 12 10 -2 0 -10 -5 -18 -12 -18 -6 0 -3 -7 8
-16 10 -8 13 -12 5 -8 -11 5 -13 2 -9 -14 5 -16 2 -19 -11 -15 -9 4 -5 -3 9
-16 14 -13 18 -21 10 -18 -13 4 -15 -2 -12 -31 3 -25 1 -33 -7 -27 -9 5 -9 1
0 -13 7 -12 16 -19 19 -17 4 2 7 -2 7 -9 0 -8 -6 -12 -12 -10 -7 3 -11 -7 -11
-25 0 -17 3 -28 7 -26 4 3 10 -2 13 -11 4 -10 2 -13 -6 -8 -7 5 -9 0 -6 -14 5
-16 2 -19 -11 -15 -9 4 -5 -3 9 -16 14 -13 18 -21 10 -18 -13 4 -15 -2 -12
-31 3 -25 1 -33 -7 -27 -9 5 -9 1 0 -13 7 -12 16 -19 19 -17 4 2 7 -2 7 -9 0
-8 -6 -12 -12 -10 -7 3 -11 -7 -11 -25 0 -17 4 -27 10 -24 5 4 7 -1 3 -11 -4
-10 -7 -27 -7 -37 0 -12 -4 -17 -11 -14 -6 4 -5 -2 2 -13 7 -12 17 -18 21 -16
4 3 8 0 8 -5 0 -6 -6 -11 -14 -11 -8 0 -18 -5 -21 -10 -4 -6 -1 -9 6 -8 6 2
14 -3 17 -11 2 -8 0 -11 -5 -8 -5 3 -10 0 -10 -8 0 -8 4 -12 8 -10 4 3 10 -2
13 -11 4 -10 2 -13 -6 -8 -8 5 -9 0 -5 -15 5 -19 3 -21 -11 -9 -16 12 -16 11
-1 -7 9 -11 20 -27 24 -35 7 -12 6 -13 -6 -3 -13 10 -14 7 -11 -24 4 -28 2
-34 -9 -27 -11 6 -12 5 -3 -7 5 -8 16 -27 23 -43 10 -24 10 -27 -1 -18 -11 9
-13 1 -8 -46 3 -31 10 -64 15 -72 7 -12 6 -13 -6 -3 -13 10 -14 7 -11 -24 3
-26 1 -34 -7 -28 -9 5 -9 1 0 -13 7 -12 16 -19 19 -17 4 2 7 -2 7 -9 0 -9 -7
-12 -16 -8 -14 5 -14 4 -1 -13 9 -11 10 -16 3 -11 -7 4 -13 2 -13 -3 0 -6 7
-11 15 -11 8 0 15 -5 15 -11 0 -5 -4 -7 -10 -4 -6 4 -10 -8 -10 -30 0 -26 -3
-34 -12 -29 -10 6 -10 4 -2 -7 5 -8 16 -27 23 -43 10 -25 10 -28 -1 -18 -11 9
-13 5 -10 -23 3 -25 0 -35 -9 -35 -9 0 -10 -3 -4 -8 6 -4 16 -20 23 -36 11
-25 11 -28 0 -18 -11 9 -13 4 -10 -25 4 -28 2 -34 -9 -27 -11 6 -12 5 -3 -7 5
-8 16 -27 23 -43 10 -25 10 -28 -1 -18 -11 9 -13 5 -10 -23 3 -25 0 -35 -9
-35 -9 0 -10 -3 -4 -8 6 -4 16 -20 23 -36 11 -25 11 -28 0 -18 -11 9 -13 4
-10 -25 3 -23 1 -33 -6 -29 -6 4 -6 -3 1 -18 8 -16 14 -21 19 -13 6 9 8 9 8 0
0 -7 -8 -17 -17 -22 -11 -6 -13 -11 -5 -11 10 0 10 -5 1 -21 -8 -15 -8 -19 0
-15 6 4 11 0 11 -9 0 -9 -5 -13 -11 -9 -8 5 -8 1 0 -13 7 -14 7 -24 -2 -33 -8
-9 -8 -11 -1 -7 7 4 14 0 17 -8 4 -10 1 -12 -10 -8 -12 5 -15 2 -11 -8 21 -51
21 -52 9 -44 -10 6 -11 3 -2 -13 14 -26 14 -35 0 -26 -8 5 -8 1 0 -13 7 -14 7
-24 -2 -33 -8 -9 -8 -11 -1 -7 7 4 14 0 17 -8 4 -10 1 -12 -10 -8 -12 5 -15 2
-11 -8 21 -51 21 -52 9 -44 -10 6 -11 3 -2 -13 14 -26 14 -35 0 -26 -8 5 -8 1
0 -13 7 -14 7 -24 -2 -33 -8 -9 -8 -11 -1 -7 15 9 27 -20 12 -29 -7 -4 -8 -3
-4 4 4 7 2 12 -3 12 -13 0 -14 -10 -1 -30 6 -9 5 -20 -3 -29 -8 -10 -8 -13 -1
-8 7 4 14 0 18 -8 3 -8 0 -17 -6 -21 -7 -4 -8 -3 -4 4 4 7 2 12 -3 12 -13 0
-14 -10 -1 -30 6 -9 5 -20 -3 -29 -8 -10 -8 -13 -1 -8 7 4 14 0 18 -8 3 -8 0
-17 -6 -21 -7 -4 -8 -3 -4 4 4 7 2 12 -3 12 -13 0 -14 -10 -1 -30 6 -9 5 -20
-3 -29 -8 -10 -8 -13 -1 -8 13 8 27 -19 18 -34 -3 -5 -12 -9 -19 -9 -9 0 -12
-6 -8 -16 5 -14 3 -15 -17 -4 -15 8 -20 8 -16 1 4 -6 2 -11 -3 -11 -6 0 -11 8
-12 18 0 14 -2 14 -9 -3 -5 -11 -9 -14 -9 -6 -1 11 -4 11 -18 0 -9 -8 -14 -9
-10 -3 3 6 0 11 -8 11 -8 0 -12 -4 -9 -9 8 -13 -29 -6 -38 7 -5 6 -8 5 -8 -3
0 -7 -5 -10 -10 -7 -6 4 -7 11 -4 17 4 5 -6 2 -22 -8 -15 -11 -25 -14 -22 -8
4 6 1 11 -7 11 -8 0 -12 -4 -9 -9 10 -15 -30 -4 -44 12 -8 8 -11 10 -8 3 4 -6
2 -14 -4 -18 -5 -3 -10 -1 -10 5 0 8 -6 7 -21 -1 -13 -6 -19 -7 -15 -1 7 11
-12 11 -31 -1 -8 -5 -13 -3 -13 4 0 8 -5 7 -17 -2 -15 -12 -16 -12 -8 1 7 13
6 13 -7 2 -13 -10 -17 -10 -21 0 -4 10 -8 10 -16 -2 -10 -13 -11 -13 -11 0 0
10 -3 11 -8 4 -9 -13 -42 -14 -42 -1 0 6 -5 6 -12 1 -16 -11 -39 -11 -55 -1
-7 5 -13 4 -13 0 0 -5 -13 -9 -30 -9 -16 -1 -30 3 -30 10 0 6 -4 6 -9 -3 -6
-9 -10 -10 -16 -2 -5 9 -10 9 -21 0 -11 -9 -14 -9 -14 1 0 9 -4 9 -17 -1 -9
-8 -14 -9 -10 -3 3 6 0 11 -8 11 -8 0 -12 -4 -9 -9 3 -4 1 -8 -5 -8 -5 0 -12
6 -14 13 -4 9 -6 9 -6 -1 -1 -10 -6 -10 -22 -1 -16 8 -20 8 -14 -1 6 -9 2 -9
-14 -1 -16 9 -21 9 -21 0 0 -8 -5 -7 -17 2 -11 10 -14 10 -9 2 4 -7 2 -13 -3
-13 -6 0 -11 6 -11 13 0 7 -3 8 -8 2 -4 -5 -17 -10 -29 -11 -19 0 -21 2 -10
15 6 9 1 7 -12 -4 -26 -22 -30 -23 -42 -3 -7 11 -9 11 -9 -1 0 -11 -3 -11 -17
0 -15 12 -16 12 -8 -1 7 -13 6 -13 -7 -2 -13 10 -17 10 -22 0 -5 -11 -7 -11
-12 0 -5 10 -9 10 -20 1 -11 -9 -14 -8 -14 2 0 11 -2 11 -9 0 -8 -13 -12 -13
-27 0 -16 12 -17 12 -9 -1 8 -13 7 -13 -8 -1 -9 7 -17 9 -17 4 0 -8 -46 -10
-75 -3 -5 1 -12 1 -15 0 -13 -7 -58 -5 -54 2 3 4 0 8 -5 8 -6 0 -11 -3 -11 -8
0 -4 -13 -7 -30 -7 -16 -1 -30 3 -30 8 0 4 -6 5 -12 0 -18 -11 -32 -10 -40 2
-5 7 -8 7 -8 0 0 -12 -40 -12 -60 0 -8 5 -11 4 -7 -2 9 -14 -65 -12 -75 2 -5
6 -8 4 -8 -5 0 -13 -1 -13 -10 0 -5 8 -10 10 -10 4 0 -9 -65 -12 -95 -4 -5 1
-13 1 -17 0 -37 -12 -89 6 -64 22 7 5 6 8 -4 8 -13 0 -13 1 0 10 10 6 11 10 3
10 -7 0 -13 5 -13 11 0 5 6 7 13 3 8 -5 8 -2 -2 9 -11 14 -11 17 0 17 12 0 12
2 0 9 -8 5 -9 11 -3 15 11 7 11 24 -1 44 -5 7 -3 12 5 12 9 0 9 3 -2 10 -8 5
-11 10 -6 10 5 0 3 7 -4 15 -11 13 -10 14 6 9 16 -6 17 -5 7 7 -15 15 -18 33
-5 25 5 -3 9 2 9 10 0 8 -6 13 -13 10 -8 -3 -11 0 -7 9 3 8 10 12 17 8 6 -3 4
2 -5 13 -17 20 -15 49 3 38 5 -4 3 5 -6 19 -16 23 -16 26 -1 41 9 9 12 16 7
16 -6 0 -13 7 -16 16 -3 8 -2 12 4 9 12 -8 12 -3 1 28 -7 17 -5 32 4 51 8 15
10 24 5 21 -6 -4 -10 1 -10 9 0 9 5 16 12 16 6 0 8 3 5 6 -4 4 -13 1 -22 -6
-8 -7 -15 -8 -15 -2 0 5 7 12 15 16 9 3 12 12 8 22 -6 15 -7 38 -4 105 1 13 6
18 14 14 6 -4 4 0 -5 7 -11 10 -14 19 -8 28 6 10 3 21 -7 33 -15 16 -15 17 -1
12 9 -4 19 -1 23 5 3 6 1 9 -6 8 -6 -2 -14 3 -17 11 -3 9 0 11 8 6 9 -6 10 -3
3 10 -6 10 -8 26 -6 36 3 11 -1 27 -8 36 -8 9 -9 14 -3 10 8 -5 11 7 10 39 -1
25 2 48 7 51 4 3 1 13 -8 23 -11 12 -13 20 -6 25 6 3 8 17 5 32 -5 20 -4 24 6
18 9 -6 11 -4 4 6 -4 8 -9 36 -9 63 -1 30 -6 51 -13 54 -7 2 -10 8 -6 13 3 5
0 9 -6 9 -6 0 -8 4 -5 10 3 6 -1 7 -9 4 -11 -4 -16 0 -16 12 0 9 -3 15 -6 11
-8 -8 -74 59 -74 74 0 6 -7 8 -16 5 -8 -3 -12 -2 -9 4 3 6 1 10 -5 10 -6 0 -8
4 -5 10 3 6 -1 7 -10 4 -10 -4 -15 -2 -13 7 2 8 -3 13 -9 12 -7 -2 -13 4 -13
13 0 8 -4 12 -10 9 -5 -3 -10 1 -10 10 0 11 -5 15 -16 11 -8 -3 -12 -2 -9 4 3
6 1 10 -4 10 -6 0 -11 8 -11 17 0 9 -3 14 -6 10 -3 -3 -22 10 -41 29 -20 20
-39 32 -46 27 -7 -4 -5 2 3 12 8 10 10 16 4 12 -7 -4 -15 0 -18 9 -3 9 -11 12
-18 8 -8 -5 -9 -2 -4 12 4 10 4 15 0 12 -11 -12 -46 12 -40 28 3 7 2 13 -2 13
-21 -3 -32 3 -32 19 0 14 -2 15 -10 2 -6 -9 -10 -10 -10 -3 0 14 -77 93 -90
93 -5 0 -19 14 -32 30 -16 22 -24 27 -31 18 -5 -8 -6 -5 -2 10 4 13 2 22 -5
22 -6 0 -24 14 -40 30 -17 17 -30 27 -31 23 0 -4 -4 2 -10 15 -5 13 -13 20
-19 17 -5 -3 -10 -2 -10 2 0 5 -7 18 -16 29 -8 10 -12 12 -8 4 4 -9 -2 -7 -13
5 -11 11 -19 23 -16 28 2 4 -1 7 -7 7 -6 0 -8 5 -4 13 5 8 2 8 -9 -2 -15 -12
-17 -11 -17 3 0 15 -12 21 -34 17 -5 -1 -3 6 5 15 12 15 12 17 0 9 -11 -6 -13
-4 -8 8 3 9 3 16 -1 16 -22 -4 -42 2 -37 11 3 6 -1 10 -10 10 -9 0 -13 5 -10
10 3 6 -1 10 -9 10 -14 0 -20 11 -17 32 0 4 -5 5 -12 2 -9 -3 -12 -87 -12
-372 1 -202 4 -373 8 -379 4 -6 4 -14 0 -16 -10 -7 -8 -451 2 -467 5 -7 4 -11
-1 -7 -5 3 -9 -21 -9 -54 0 -32 4 -59 8 -59 5 0 5 -5 2 -11 -11 -17 -11 -79 0
-79 7 0 7 -3 0 -8 -13 -9 -14 -82 -2 -82 5 0 5 -6 -2 -13 -8 -10 -7 -17 2 -27
6 -7 7 -10 1 -7 -6 4 -10 -9 -10 -34 1 -21 5 -39 9 -39 5 0 5 -5 1 -12 -11
-18 -10 -68 1 -68 6 0 4 -4 -3 -9 -20 -12 -19 -18 3 -36 11 -8 14 -14 6 -13
-9 2 -14 -8 -15 -30 0 -17 4 -32 9 -32 6 0 6 -3 0 -8 -15 -10 -12 -31 5 -42
12 -8 12 -10 -5 -10 -15 0 -17 -2 -6 -9 11 -7 11 -10 0 -15 -10 -4 -11 -8 -2
-12 8 -3 9 -15 3 -35 -6 -20 -5 -29 3 -29 8 0 8 -3 2 -8 -5 -4 -10 -40 -10
-80 0 -57 3 -72 15 -72 11 -1 10 -4 -5 -12 -19 -11 -19 -11 0 -19 15 -5 16 -8
4 -8 -13 -1 -14 -10 -9 -51 4 -28 4 -50 0 -50 -3 0 -3 -27 0 -60 3 -33 2 -60
-3 -60 -4 0 -5 -5 -2 -10 4 -6 12 -8 18 -4 7 3 3 -2 -7 -10 -15 -12 -16 -16
-5 -16 12 0 12 -2 -1 -10 -13 -9 -13 -10 0 -10 13 0 13 -1 0 -10 -13 -9 -13
-10 0 -10 13 0 13 -2 1 -9 -11 -7 -10 -10 5 -14 18 -5 18 -5 0 -6 -15 -1 -16
-4 -6 -16 7 -8 9 -15 4 -15 -5 0 -7 -63 -4 -140 3 -77 3 -140 0 -140 -10 0 2
-115 13 -129 9 -11 9 -13 1 -8 -7 4 -15 0 -18 -9 -4 -12 -2 -15 9 -10 13 5 13
2 -1 -19 -11 -17 -12 -25 -5 -25 7 0 9 -5 5 -12 -5 -9 -3 -9 9 1 14 11 18 11
23 -3 3 -9 9 -14 13 -12 9 6 115 8 194 4 33 -2 57 1 57 7 0 6 5 3 10 -5 7 -11
10 -11 10 -2 0 10 5 10 20 2 15 -8 20 -8 20 1 0 8 4 8 15 -1 12 -10 15 -10 15
1 0 11 2 11 10 -1 7 -11 10 -11 10 -2 0 8 5 10 12 6 17 -11 58 -11 58 -1 0 4
5 5 12 1 6 -4 91 -7 189 -7 124 0 176 -4 172 -11 -5 -7 -2 -7 8 0 16 13 78 13
98 0 9 -6 12 -5 8 1 -8 13 62 12 82 -1 10 -6 12 -6 7 2 -8 13 20 12 40 -1 7
-4 17 0 24 8 12 14 15 14 30 0 13 -11 20 -13 25 -5 5 8 11 7 23 -2 10 -8 13
-9 9 -1 -8 14 50 13 72 -1 10 -6 12 -5 7 2 -9 15 6 16 21 1 8 -8 13 -8 17 0 4
6 12 11 17 11 6 0 7 -5 3 -12 -5 -7 -3 -8 7 -2 21 13 39 14 39 1 0 -7 5 -6 10
3 9 13 11 13 20 0 8 -12 10 -12 10 -1 0 11 3 11 17 0 11 -10 14 -10 9 -1 -4 6
-3 12 3 12 5 0 12 -4 15 -9 7 -10 25 -9 43 2 8 5 13 3 13 -5 0 -9 3 -9 10 2 9
13 11 13 20 0 8 -12 10 -12 10 -1 0 10 3 11 14 2 11 -9 15 -9 19 1 4 10 8 10
16 -2 10 -13 11 -13 11 0 0 9 3 11 8 5 9 -13 35 -18 27 -5 -3 5 -2 10 4 10 5
0 12 -6 14 -12 4 -10 6 -9 6 1 1 11 4 11 16 1 12 -10 15 -10 15 1 0 11 2 11
10 -1 9 -13 10 -13 10 0 0 13 1 13 10 0 8 -12 10 -12 10 -1 0 9 4 10 13 4 11
-8 29 -10 42 -3 13 7 31 5 43 -3 8 -6 12 -5 12 3 0 9 3 10 13 1 10 -8 17 -7
25 1 9 9 12 9 12 -1 0 -11 3 -11 17 0 11 10 14 10 9 1 -4 -6 -2 -12 3 -12 6 0
11 5 11 11 0 8 6 7 17 -2 15 -12 16 -12 8 1 -6 12 -5 13 6 3 16 -16 33 -17 24
-3 -8 13 17 9 26 -4 4 -5 13 -5 20 0 18 11 40 14 34 5 -2 -4 2 -8 10 -8 8 0
12 4 10 8 -6 9 15 6 32 -4 6 -4 14 -1 16 5 4 10 6 9 6 -1 1 -11 4 -11 18 0 15
12 16 12 10 -3 -4 -12 -2 -15 8 -11 8 3 13 8 10 12 -2 4 2 8 10 8 8 0 12 -4 9
-9 -8 -12 10 -10 23 3 8 8 13 8 17 0 10 -15 29 -14 20 2 -6 10 -4 10 7 0 17
-17 32 -17 23 -1 -6 11 -4 11 7 0 17 -16 32 -16 23 1 -5 7 -1 7 10 -2 14 -12
19 -12 26 -2 6 11 9 11 13 0 5 -12 7 -12 15 0 8 11 10 11 15 0 4 -12 7 -11 16
1 7 10 11 11 11 3 0 -7 7 -13 16 -13 9 0 12 5 8 13 -5 7 -1 7 10 -2 14 -12 19
-12 26 -2 6 11 9 11 13 0 5 -12 7 -12 15 0 8 11 10 11 14 0 4 -12 8 -11 23 1
11 9 16 10 11 3 -5 -9 0 -13 14 -13 14 0 19 4 14 12 -6 10 -4 11 7 1 7 -7 19
-13 27 -13 8 0 10 5 6 13 -5 7 -1 7 10 -2 15 -13 19 -13 27 0 7 11 9 10 10 -6
0 -11 3 -15 5 -9 2 6 20 9 40 8 25 -2 33 0 27 9 -5 9 -3 9 8 0 19 -15 121 -15
131 0 6 9 8 9 8 0 0 -7 9 -13 20 -13 11 0 20 6 20 13 0 9 2 9 8 0 5 -9 87 -12
302 -13 162 0 329 -1 370 -1 41 0 104 0 140 0 l65 1 0 417 c-1 230 -4 423 -8
430 -4 6 -4 14 1 17 10 6 9 247 -1 264 -5 6 -4 12 0 12 10 0 10 190 1 206 -4
6 -4 14 0 18 11 12 8 340 -3 348 -6 5 -6 8 2 8 10 0 11 49 2 96 -1 5 0 11 1
14 8 16 5 70 -4 70 -8 0 -8 3 -1 8 14 9 13 234 0 244 -7 5 -6 8 0 8 7 0 11 25
10 60 0 33 -4 60 -8 60 -5 0 -5 6 0 13 11 17 11 60 0 75 -5 6 -6 12 -1 12 5 0
9 13 9 30 1 16 -3 30 -8 30 -4 0 -5 5 -1 12 11 18 12 68 2 68 -5 0 -6 5 -2 12
12 19 12 108 0 108 -7 0 -7 3 -1 8 14 10 17 32 4 32 -8 0 -8 4 0 13 8 10 7 17
-2 27 -9 10 -9 11 0 6 9 -5 11 4 8 34 -2 22 -7 45 -10 50 -3 6 -2 10 2 10 11
0 9 122 -2 140 -5 8 -4 11 3 6 12 -7 9 65 -3 84 -3 6 -2 10 3 10 10 0 9 50 -2
68 -4 7 -3 12 1 12 7 0 9 96 3 125 -1 6 -1 12 0 15 6 16 6 52 -1 56 -4 2 -4
17 0 32 5 15 5 37 0 49 -5 13 -4 25 1 28 7 4 7 13 0 24 -5 10 -6 21 -3 25 10
10 10 106 0 106 -5 0 -3 8 4 17 12 14 12 16 0 8 -10 -6 -12 -4 -6 6 13 19 13
163 0 172 -6 4 -7 10 0 15 11 8 13 187 3 198 -4 3 -3 17 2 30 6 14 6 26 -1 29
-5 4 -6 12 -2 18 11 18 10 67 -1 67 -7 0 -8 3 -1 8 14 10 17 32 4 32 -8 0 -8
5 1 15 9 11 9 15 1 15 -9 0 -9 5 -1 20 8 15 8 20 -2 20 -8 0 -9 3 -3 8 12 8
13 32 2 50 -5 6 -4 12 0 12 10 0 10 41 0 57 -4 5 -3 13 0 17 10 10 11 86 1 92
-4 3 -3 14 3 26 8 15 8 19 0 14 -8 -5 -8 0 -1 18 7 19 6 26 -3 26 -7 0 -8 3
-2 8 12 8 13 32 2 50 -5 6 -4 12 0 12 10 0 10 41 0 57 -4 5 -3 13 0 17 10 10
11 66 1 66 -5 0 -4 8 1 18 5 10 6 24 1 31 -4 8 -4 26 0 41 4 15 4 33 0 40 -4
7 -4 25 0 40 4 15 4 33 0 40 -4 7 -4 25 0 40 4 15 4 33 0 40 -5 7 -4 24 0 36
6 14 5 26 0 29 -6 4 -7 14 -2 23 11 27 7 67 -7 64 -7 -1 -10 2 -6 8 3 6 10 8
13 6 6 -4 7 129 2 144 -2 3 -1 10 0 15 6 27 5 52 -2 68 -5 9 -5 17 -1 17 5 0
8 23 8 50 0 28 -4 50 -9 50 -4 0 -3 6 3 14 8 10 9 16 1 21 -6 3 -8 11 -4 16 9
15 12 59 4 59 -6 0 -6 35 0 50 6 14 4 36 -3 47 -4 6 -3 14 4 18 8 6 7 10 -2
16 -8 5 -9 9 -4 9 11 0 12 100 1 118 -3 6 -1 14 5 18 8 4 7 9 -2 15 -8 5 -9 9
-3 9 11 0 12 35 1 46 -3 4 -2 15 4 25 7 14 6 19 -3 19 -8 0 -9 3 -3 8 12 8 16
42 6 42 -4 0 -8 7 -8 15 0 8 3 15 7 15 6 0 5 56 0 70 -1 3 -2 8 -1 13 7 45 7
88 0 93 -5 3 -9 10 -9 15 0 6 4 8 8 5 5 -3 9 1 9 9 0 8 -5 15 -11 15 -6 0 -4
5 4 10 13 9 13 10 0 10 -9 0 -11 3 -5 8 14 10 13 35 -2 45 -7 4 -428 7 -935 7
-1952 -2 -2788 -1 -2797 4 -5 4 -12 0 -14 -6 -4 -10 -7 -10 -15 0 -7 10 -11
10 -22 -2z m944 -1952 c5 -14 4 -15 -9 -4 -17 14 -19 20 -6 20 5 0 12 -7 15
-16z m1833 -159 c0 -8 -4 -12 -9 -9 -5 3 -6 10 -3 15 9 13 12 11 12 -6z m-3
-121 c3 -8 2 -12 -4 -9 -6 3 -10 10 -10 16 0 14 7 11 14 -7z m-1827 -9 c0 -8
-4 -12 -9 -9 -5 3 -6 10 -3 15 9 13 12 11 12 -6z"/>
<path d="M3913 5585 c0 -8 4 -12 9 -9 5 3 6 10 3 15 -9 13 -12 11 -12 -6z"/>
<path d="M3830 4550 c0 -5 5 -10 11 -10 5 0 7 5 4 10 -3 6 -8 10 -11 10 -2 0
-4 -4 -4 -10z"/>
<path d="M5720 1240 c0 -5 5 -10 10 -10 6 0 10 5 10 10 0 6 -4 10 -10 10 -5 0
-10 -4 -10 -10z"/>
</g>
</svg>
